<svg xmlns="http://www.w3.org/2000/svg" xmlns:xlink="http://www.w3.org/1999/xlink" width="578" height="1059" version="1.1" viewBox="0 0 578 1059"><title>iPhone 6+ White</title><desc>Created with Sketch.</desc><defs><rect id="path-2" width="456" height="937" x="12" y="9" rx="70.4"/></defs><g id="Page-1" fill="none" fill-rule="evenodd" stroke="none" stroke-width="1"><g id="iPhone-6+-White" transform="translate(49.000000, 52.000000)"><rect id="Mute-Switch" width="4" height="40" x="1" y="113" fill="#E0E0E1" rx="44"/><g id="Volume-Switches" fill="#E0E0E1" transform="translate(0.000000, 186.884876)"><rect id="Volume-Up" width="7" height="73" x="0" y=".115" rx="44"/><rect id="Volume-Down" width="7" height="73" x="0" y="89.115" rx="44"/></g><rect id="Power-Button" width="7" height="73" x="474" y="188" fill="#E0E0E1" rx="44"/><rect id="Metal-Shell" width="474" height="955" x="3" y="0" fill="#DEDEDE" rx="74.8"/><g id="Front-Plate" stroke-width="4.4"><use fill="#F8F8F8" fill-rule="evenodd" stroke="#EDEDED" xlink:href="#path-2"/><use fill="none" stroke="#FFF" xlink:href="#path-2"/></g><rect id="Screen-Outer" width="422" height="744" x="29" y="106" fill="#000" rx="4.4"/><rect id="Screen" width="414" height="736" x="33" y="110" fill="#1A1A1A" rx="2.2"/><circle id="Home-button" cx="240" cy="896" r="35" fill="#F8F8F8" stroke="#DDD" stroke-width="4.4"/><circle id="Front-Camera" cx="173.5" cy="59.5" r="7.5" fill="#DDD"/><rect id="Front-Mic" width="66" height="6" x="207" y="56" fill="#DDD" rx="44"/><circle id="Light-Sensor" cx="240" cy="30" r="4" fill="#ECECEC"/><g id="Antenna" fill="#DEDEDE" transform="translate(3.303448, 65.931151)"><rect id="Antenna-Top-Left" width="9" height="13" x="-.303" y=".069"/><rect id="Antenna-Bottom-Left" width="9" height="13" x="-.303" y="809.069"/><rect id="Antenna-Top-Right" width="9" height="13" x="464.697" y=".069"/><rect id="Antenna-Bottom-Right" width="9" height="13" x="464.697" y="809.069"/></g></g></g></svg>